<?xml version="1.0" standalone="no"?><!DOCTYPE svg PUBLIC "-//W3C//DTD SVG 1.1//EN" "http://www.w3.org/Graphics/SVG/1.1/DTD/svg11.dtd"><svg t="1597936940206" class="icon" viewBox="0 0 1024 1024" version="1.1" xmlns="http://www.w3.org/2000/svg" p-id="13489" xmlns:xlink="http://www.w3.org/1999/xlink" width="32" height="32"><defs><style type="text/css"></style></defs><path d="M805.2 151.1c10 0 18.4 8.4 18.4 18.4v685.3c0 10-8.4 18.4-18.4 18.4H219c-10 0-18.4-8.4-18.4-18.4V169.5c0-10 8.4-18.4 18.4-18.4h586.2m0-55.1H219c-40.4 0-73.4 33.1-73.4 73.4v685.3c0 40.4 33.1 73.4 73.4 73.4h586.2c40.4 0 73.4-33.1 73.4-73.4V169.5c0-40.4-33-73.5-73.4-73.5z" fill="#0C90F8" p-id="13490"></path><path d="M633.9 328.5H294.2c-15.2 0-27.5-12.3-27.5-27.5s12.3-27.5 27.5-27.5h339.7c15.2 0 27.5 12.3 27.5 27.5s-12.3 27.5-27.5 27.5zM736.2 539.7H288.5c-15.2 0-27.5-12.3-27.5-27.5s12.3-27.5 27.5-27.5h447.7c15.2 0 27.5 12.3 27.5 27.5s-12.3 27.5-27.5 27.5zM736.2 750.8H288.5c-15.2 0-27.5-12.3-27.5-27.5s12.3-27.5 27.5-27.5h447.7c15.2 0 27.5 12.3 27.5 27.5s-12.3 27.5-27.5 27.5z" fill="#4C4F54" p-id="13491"></path></svg>