<?xml version="1.0" standalone="no"?><!DOCTYPE svg PUBLIC "-//W3C//DTD SVG 1.1//EN" "http://www.w3.org/Graphics/SVG/1.1/DTD/svg11.dtd"><svg t="1595730269345" class="icon" viewBox="0 0 1024 1024" version="1.1" xmlns="http://www.w3.org/2000/svg" p-id="6598" xmlns:xlink="http://www.w3.org/1999/xlink" width="200" height="200"><defs><style type="text/css"></style></defs><path d="M777.152 626.432l194.624-189.696c8.768-8.512 11.904-21.248 8.128-32.768-3.776-11.584-13.824-20.032-25.792-21.76l-269.056-39.04c-5.12-0.768-9.856-2.688-14.144-5.76s-7.616-7.104-9.92-11.712L540.672 81.856C535.296 70.912 524.16 64 512 64S488.704 70.912 483.328 81.856L363.008 325.568C360.704 330.24 357.376 334.208 353.152 337.28 348.864 340.352 344.064 342.336 338.944 343.04l-268.928 39.04C57.92 383.872 47.936 392.32 44.16 403.904 40.384 415.488 43.52 428.16 52.224 436.672l194.688 189.76C250.624 630.08 253.312 634.496 254.976 639.36c1.6 5.056 1.984 10.176 1.088 15.36l-45.952 267.84c-2.048 12.032 2.88 24.128 12.736 31.296C228.416 957.952 235.008 960 241.664 960c5.12 0 10.24-1.216 14.912-3.712l240.576-126.464c9.28-4.864 20.48-4.864 29.76 0l240.576 126.464c10.752 5.696 23.808 4.8 33.664-2.432 9.856-7.168 14.784-19.264 12.736-31.296l-45.952-267.776c-0.896-5.248-0.576-10.368 1.152-15.424C770.688 634.432 773.376 630.08 777.152 626.432zM732.48 580.544c-11.136 10.816-19.584 24.32-24.256 38.976-4.928 14.912-6.08 30.4-3.456 46.016l35.008 203.968-183.104-96.256c-27.456-14.464-61.952-14.464-89.344 0L284.16 869.504 319.104 665.6c2.624-15.296 1.472-31.168-3.328-46.016C310.976 604.8 302.592 591.296 291.52 580.608L143.36 436.096 348.096 406.4c15.36-2.24 30.08-8.192 42.624-17.344 12.544-9.088 22.848-21.248 29.696-35.2L512 168.32l91.648 185.728C610.56 367.872 620.8 380.032 633.28 389.056c12.544 9.152 27.328 15.168 42.56 17.344l204.864 29.76L732.48 580.544z" p-id="6599"></path></svg>