<?xml version="1.0" standalone="no"?><!DOCTYPE svg PUBLIC "-//W3C//DTD SVG 1.1//EN" "http://www.w3.org/Graphics/SVG/1.1/DTD/svg11.dtd"><svg t="1597936888548" class="icon" viewBox="0 0 3610 1024" version="1.1" xmlns="http://www.w3.org/2000/svg" p-id="10366" xmlns:xlink="http://www.w3.org/1999/xlink" width="112.8125" height="32"><defs><style type="text/css"></style></defs><path d="M185.212045 3.629778C111.40655 34.482895 30.341499 121.597578 4.93305 230.49093-27.129993 369.027474 107.171809 427.103929 118.666107 408.350074c12.704225-22.383634-24.198523-30.248154-31.45808-102.238759-9.679409-92.55935 33.272969-196.612998 87.719646-241.985229 10.284372-8.469483 9.679409 3.024815 9.679409 24.803486 0 38.717637-2.419852 387.781329-2.419852 460.981861 0 98.608981-4.234742 129.462097-11.494299 160.315214-7.259557 31.45808-19.358818 52.026824-10.284372 60.496307 10.284372 9.074446 53.23675-12.704225 78.040236-47.18712 29.643191-41.742452 40.532526-91.954387 42.347416-146.401063 2.419852-65.336012 2.419852-169.38966 2.419852-229.281005 0-54.446676 1.209926-214.156928-1.209926-309.741092-1.209926-22.988597-65.940975-47.18712-96.794092-34.482896zM3577.844954 521.478168c-10.889335 0-15.72904 10.889335-19.358819 29.643191-13.914151 64.126086-28.433264 78.645199-47.792082 78.645199-21.173708 0-39.927563-32.063043-44.767268-95.584165-3.629778-50.211935-3.024815-142.771285 1.81489-234.725672 1.209926-18.753855-4.234742-37.50771-55.05164-55.656603-21.778671-7.86452-53.23675-19.358818-68.96579 18.753855-44.767267 107.683427-61.706233 192.98322-65.940975 227.466115 0 1.814889-2.419852 2.419852-3.024815-1.814889-2.419852-27.828301-8.469483-78.040236-9.074447-184.513737 0-20.568744-4.234742-38.112674-27.223338-52.631787-15.124077-9.074446-59.891344-26.013412-76.225347-6.049631-13.914151 16.334003-30.248154 59.286381-47.187119 110.708242-13.914151 41.742452-23.59356 70.175716-23.59356 70.175717s0-112.523131 0.604963-155.47551c0-16.334003-10.889335-21.778671-14.519114-22.383633-15.124077-4.234742-44.767267-11.494298-56.866529-11.494299-15.72904 0-19.358818 8.469483-19.358818 21.173708 0 1.814889-2.419852 148.215953-2.419852 251.059675v14.519113c-8.469483 47.18712-36.297784 111.313205-66.545938 111.313206s-44.767267-26.618375-44.767268-148.820916c0-71.385643 2.419852-102.238759 3.024816-153.66062 0.604963-29.643191 1.814889-52.631787 1.814889-57.471492 0-15.72904-27.828301-23.59356-40.532526-26.618375-12.704225-3.024815-24.198523-4.234742-32.668006-3.629779-12.099261 0.604963-21.173708 9.074446-21.173707 19.963782v17.543929c-15.72904-24.803486-41.137489-42.347415-58.681418-47.18712-45.977193-13.309188-93.769276-1.814889-129.462098 49.002009-28.433264 39.927563-45.977193 85.299793-52.631787 150.635805-4.839705 47.792083-3.629778 96.189128 5.444668 136.721654-10.889335 45.977193-30.248154 64.731049-52.026825 64.731049-31.45808 0-54.446676-51.421861-51.421861-140.351433 1.814889-58.681418 13.309188-99.213944 26.013412-158.500325 5.444668-25.408449 1.209926-38.717637-10.284372-51.421861-10.284372-11.494298-32.063043-17.543929-62.916159-10.284372-22.383634 5.444668-53.841713 10.889335-82.879941 15.124077 0 0 1.814889-7.259557 3.024815-19.358819 7.259557-64.731049-62.91616-59.286381-85.299793-38.717636-13.309188 12.099261-22.383634 26.618375-26.013412 53.23675-5.444668 41.742452 28.433264 61.10127 28.433264 61.10127-10.889335 50.816898-38.112674 117.362836-66.545938 165.154919-15.124077 26.013412-26.618375 44.767267-41.742452 65.336012v-22.383634c-0.604963-107.078464 1.209926-191.168331 1.81489-221.416484 0.604963-29.643191 1.814889-52.026824 1.814889-56.866529 0-11.494298-6.654594-15.72904-21.173708-21.778671-12.704225-4.839705-27.223338-8.469483-42.347415-9.679409-19.358818-1.209926-30.853117 8.469483-30.853116 20.568745v16.334003c-15.72904-24.803486-41.137489-42.347415-58.681418-47.18712-45.977193-13.309188-93.769276-1.814889-129.462098 49.002009-28.433264 39.927563-47.18712 96.189128-52.631787 150.030842-4.839705 50.211935-4.234742 92.55935 2.419852 128.857134-7.259557 35.692821-28.433264 73.805495-52.026824 73.805495-30.248154 0-47.18712-26.618375-47.18712-148.820916 0-71.385643 2.419852-102.238759 3.024816-153.66062 0.604963-29.643191 1.814889-52.631787 1.814889-57.471492 0-15.72904-27.828301-23.59356-40.532526-26.618375-13.309188-3.024815-24.803486-4.234742-33.877932-3.629779-11.494298 0.604963-19.963781 11.494298-19.963781 19.358819v18.148892c-15.72904-24.803486-41.137489-42.347415-58.681418-47.18712-45.977193-13.309188-93.164313-1.209926-129.462098 49.002009-23.59356 32.668006-42.952378 68.96579-52.631787 149.425879-3.024815 22.988597-4.234742 44.767267-4.234742 65.336012-9.679409 57.471492-50.816898 124.01743-85.299793 124.017429-19.963781 0-38.717637-38.717637-38.717636-120.992614 0-110.103279 6.654594-266.183752 7.86452-281.307829 0 0 42.952378-0.604963 51.421861-0.604963 21.778671 0 41.137489 0 69.570753-1.209926 14.519114-0.604963 28.433264-52.026824 13.309188-58.681418-6.654594-3.024815-54.446676-5.444668-73.200532-6.04963-15.72904-0.604963-59.891344-3.629778-59.891344-3.629779s4.234742-104.053648 4.839704-114.942984c0.604963-9.074446-10.889335-13.914151-17.543929-16.938966-16.334003-7.259557-31.45808-10.284372-49.002009-13.91415-24.198523-4.839705-35.087858 0-37.50771 20.568744-3.024815 30.853117-4.839705 121.597578-4.839705 121.597578-17.543929 0-78.040236-3.629778-96.189128-3.629779-16.334003 0-34.482895 70.780679-11.494299 71.990606 26.013412 1.209926 71.990606 1.814889 102.23876 3.024815 0 0-1.209926 159.105288-1.209927 208.107297v15.124077C1135.609031 529.947651 1076.927613 576.529808 1076.927613 576.529808c12.704225-57.471492-13.309188-100.42387-59.286381-137.326618-16.938966-13.309188-50.816898-38.717637-88.324608-67.150901 0 0 21.778671-21.778671 41.137489-64.731048 13.914151-30.853117 14.519114-65.940975-19.358819-73.805495-55.656603-12.704225-101.633796 27.828301-115.547946 71.990605-10.889335 33.877932-4.839705 58.681418 15.72904 85.299794 1.814889 1.814889 3.024815 3.629778 4.839704 6.04963-12.704225 24.198523-29.643191 56.866529-44.767267 82.274978-40.532526 70.175716-71.385643 125.832319-94.374239 125.832319-18.753855 0-18.148892-56.261566-18.148893-109.498316 0-45.37223 3.629778-113.733058 6.049631-185.1187 0.604963-23.59356-10.889335-36.902747-30.248154-49.002009-12.099261-7.259557-37.50771-21.778671-52.026824-21.77867-22.383634 0-85.904756 3.024815-145.7961 177.25418-7.86452 21.778671-22.383634 61.706233-22.383634 61.706233l1.209926-209.317223c0-4.839705-2.419852-9.679409-8.469483-12.704224-10.284372-5.444668-37.50771-16.938966-61.10127-16.938966-11.494298 0-16.938966 5.444668-16.938966 15.729039l-1.814889 327.889986c0 24.803486 0.604963 53.841713 3.024815 66.545937 2.419852 12.704225 6.654594 22.988597 11.494299 29.038228 4.839705 6.049631 10.889335 10.889335 19.963781 12.704224 8.469483 1.814889 56.261566 7.86452 59.286381-10.284372 3.024815-21.778671 3.024815-45.37223 28.433264-133.696839 39.3226-137.326617 90.139498-204.477518 113.733058-228.071078 4.234742-4.234742 9.074446-4.234742 8.469483 2.419852-1.209926 30.248154-4.839705 105.263575-7.259557 169.389661-6.654594 171.204549 24.803486 202.662629 68.96579 202.662629 33.877932 0 82.274978-33.877932 133.696839-119.177725 32.063043-53.23675 62.91616-105.868538 85.299793-143.376249 15.72904 14.519114 33.272969 30.248154 50.816899 46.582157 40.532526 38.717637 53.841713 75.015421 45.37223 110.103279-6.654594 26.618375-32.063043 53.841713-77.435273 27.223338-13.309188-7.86452-18.753855-13.914151-32.063043-22.383633-7.259557-4.839705-18.148892-6.049631-24.803486-1.209926-16.938966 12.704225-26.618375 29.038227-32.063043 49.002008-5.444668 19.358818 14.519114 30.248154 34.482895 39.3226 17.543929 7.86452 55.05164 15.124077 79.250163 15.72904 93.769276 3.024815 168.784697-45.37223 220.811521-169.994623 9.074446 107.683427 49.002009 168.784697 118.572762 168.784697 45.977193 0 92.55935-59.891344 113.128095-118.572762 6.049631 24.198523 14.519114 44.767267 25.408449 62.311196 53.23675 84.69483 156.685436 66.545938 208.71226-5.444668 16.334003-22.383634 18.753855-30.248154 18.753855-30.248153 7.86452 67.755864 62.311196 91.349424 93.164313 91.349424 35.087858 0 70.780679-16.334003 96.189128-73.200532 3.024815 6.049631 6.049631 12.099261 9.67941 17.543929 53.23675 84.69483 156.685436 66.545938 208.712259-5.444668 2.419852-3.629778 4.839705-6.654594 6.654594-9.074446l1.814889 44.767268s-29.643191 27.223338-47.792082 43.557341c-79.855126 73.200532-140.956396 128.857134-145.796101 194.193146-5.444668 82.879941 61.10127 113.733058 111.918169 117.362836 53.841713 4.234742 99.818907-25.408449 128.252171-67.150901 24.803486-36.902747 41.137489-115.547947 39.927563-193.588183-0.604963-31.45808-1.209926-70.780679-1.814889-113.733058 28.433264-32.668006 59.891344-73.805495 88.929571-122.20254 32.063043-52.631787 65.940975-123.412467 83.484904-178.464106 0 0 29.643191 0 61.10127-1.81489 10.284372-0.604963 13.309188 1.209926 10.889336 9.074446-2.419852 9.074446-39.927563 154.265583-5.444668 251.059675 23.59356 66.545938 76.83031 87.719645 108.28839 87.719646 36.902747 0 71.990606-27.828301 90.744461-68.96579 2.419852 4.839705 4.839705 9.074446 7.259557 13.309187 53.23675 84.69483 156.080473 65.940975 208.712259-5.444667 12.099261-16.334003 18.753855-30.248154 18.753856-30.248154 11.494298 70.175716 65.940975 91.954387 96.794091 91.954387 32.668006 0 63.521123-13.309188 88.324609-72.595569 1.209926 26.013412 2.419852 47.18712 5.444667 53.841714 1.814889 4.234742 10.889335 9.074446 17.54393 11.494298 29.643191 10.889335 59.891344 6.049631 71.385642 3.629778 7.86452-1.814889 13.914151-7.86452 14.519114-24.198522 2.419852-42.347415 0.604963-113.128094 13.91415-166.364845 21.778671-88.324609 41.742452-122.807504 50.816899-139.74647 5.444668-9.679409 11.494298-10.889335 11.494298-1.209926 0.604963 20.568744 1.209926 80.460089 9.679409 160.920177 6.049631 59.286381 14.519114 94.374239 20.568744 105.263575 18.148892 31.45808 39.927563 33.272969 58.076455 33.272969 11.494298 0 35.692821-3.024815 33.272969-23.59356-1.209926-9.679409 0.604963-70.780679 21.778671-157.895362 13.914151-56.866529 36.902747-108.28839 45.37223-127.647208 3.024815-6.654594 4.234742-1.209926 4.234742-0.604963-1.814889 39.3226-5.444668 167.574771 10.284372 237.750487 21.778671 94.979202 84.69483 105.868538 106.473501 105.868538 46.582157 0 84.69483-35.692821 97.399054-128.857135 4.234742-26.013412-0.604963-42.952378-14.519113-42.952378z m-1954.635686-58.076455c-2.419852 49.606972-12.099261 90.744461-27.828302 120.992615-27.828301 54.446676-83.484904 71.385643-107.683427-6.654594-17.543929-56.866529-11.494298-133.696839-4.234741-175.439291 10.889335-61.706233 38.112674-105.868538 80.460089-101.633796 43.557341 4.234742 65.336012 59.891344 59.286381 162.735066z m426.498965 1.209926c-2.419852 46.582157-14.519114 93.769276-27.828301 119.782689-27.223338 54.446676-84.089867 71.990606-107.683427-6.654594-16.334003-53.841713-12.099261-123.412467-4.234741-167.574771 10.284372-56.866529 35.692821-109.498316 80.460088-109.498316 44.162304 0 65.940975 47.792083 59.286381 163.944992z m11.494299 318.210576c-0.604963 85.299793-13.914151 159.710251-42.952378 181.488922-40.532526 30.853117-95.584165 7.86452-84.089867-54.446676 10.284372-55.05164 57.471492-111.313205 127.042245-179.674033v52.631787z m736.240059-318.210576c-2.419852 51.421861-13.914151 91.349424-27.828302 119.782689-27.223338 54.446676-84.089867 71.385643-107.683427-6.654594-13.309188-42.952378-13.914151-114.338021-4.234741-174.229365 9.679409-61.10127 36.297784-107.078464 80.460089-102.843722 43.557341 3.629778 64.126086 59.891344 59.286381 163.944992z" fill="#414042" p-id="10367"></path></svg>