<?xml version="1.0" standalone="no"?><!DOCTYPE svg PUBLIC "-//W3C//DTD SVG 1.1//EN" "http://www.w3.org/Graphics/SVG/1.1/DTD/svg11.dtd"><svg t="1597901196304" class="icon" viewBox="0 0 1024 1024" version="1.1" xmlns="http://www.w3.org/2000/svg" p-id="5806" xmlns:xlink="http://www.w3.org/1999/xlink" width="32" height="32"><defs><style type="text/css"></style></defs><path d="M895.980813 126.356826 128.01714 126.356826c-70.683852 0-127.994116 57.371662-127.994116 127.994116L0.023024 702.328813c0 70.746274 57.30924 127.963417 127.994116 127.963417l127.994116 0 0 127.993093 191.991686-127.993093 447.977871 0c70.683852 0 127.993093-57.217143 127.993093-127.963417L1023.973906 254.350942C1023.973906 183.729511 966.664665 126.356826 895.980813 126.356826zM320.008826 638.332267l-63.99757 0 0-63.996546-63.996546 0 0-63.99757-63.99757 0 0 127.994116-63.99757 0L64.019571 318.347488l63.99757 0 0 63.996546 63.99757 0 0 63.99757 63.996546 0L256.011256 318.347488l63.99757 0L320.008826 638.332267zM575.996035 382.344035 448.002942 382.344035l0 63.99757 127.993093 0 0 63.996546L448.002942 510.338151l0 63.99757 127.993093 0 0 63.996546L448.002942 638.332267l-63.99757 0 0-63.996546 0-63.99757 0-63.996546 0-63.99757 0-63.996546 63.99757 0 127.993093 0L575.996035 382.344035zM959.977359 574.33572l-63.996546 0 0 63.996546L831.98222 638.332267 831.98222 510.338151l-63.996546 0 0 127.994116-63.996546 0 0-63.996546-63.996546 0L639.992581 318.347488l63.996546 0 0 191.990662 63.996546 0L767.985674 318.347488l63.996546 0 0 191.990662 63.998593 0L895.980813 318.347488l63.996546 0L959.977359 574.33572z" p-id="5807" fill="#1296db"></path></svg>