<?xml version="1.0" standalone="no"?><!DOCTYPE svg PUBLIC "-//W3C//DTD SVG 1.1//EN" "http://www.w3.org/Graphics/SVG/1.1/DTD/svg11.dtd"><svg t="1595730257587" class="icon" viewBox="0 0 1024 1024" version="1.1" xmlns="http://www.w3.org/2000/svg" p-id="5851" xmlns:xlink="http://www.w3.org/1999/xlink" width="200" height="200"><defs><style type="text/css"></style></defs><path d="M742 424.096c0 0-36.096 0.432-131.408 0.432 46-103.68-16.032-224.352-72.32-224.352-28.784 0-67.136 25.664-67.136 56.816 0 60.576 5.04 86.864-6.048 115.264-11.072 28.384-26.24 83.712-110.24 83.712-58.608 0-110.8 0-110.8 0-30.768 0-46.4 30.512-44.336 54.048 2.08 23.536 22.752 234.24 24.816 264.016 2.08 29.776 19.648 49.664 49.648 49.664 0 0 34.752 0.352 46.864 0 15.264-0.48-1.904-16.752 37.568-16.752s31.296 16.752 44.832 16.752c94.096 0 258.848 0 258.848 0 46.608 0 79.52-29.552 96.336-82.16 16.672-52.112 45.6-171.808 54.592-225.136C821.536 467.344 794.384 424.096 742 424.096zM309.728 791.904l-6.576 0c-33.648 0-43.216-0.64-43.216-0.64l-29.904-303.616L344 487.648l0 289.136C323.248 778.768 318.544 784.608 309.728 791.904zM780.224 510.768c-7.664 50.784-38 170.448-54.832 218.992-10.992 31.76-26.416 62-53.44 62L413.824 791.76c-9.584-7.52-14.752-13.536-37.968-15.232L375.856 486.592c82.96-7.712 102.512-60.144 113.2-89.168 0 0 14.768-50.512 14.768-128.448 0-33.968 26.384-38.08 31.296-37.184 45.024 0 75.024 120.224 50.832 175.184l-25.744 49.184 181.76 0C769.136 456.176 782.912 492.992 780.224 510.768z" p-id="5852"></path></svg>