<?xml version="1.0" standalone="no"?><!DOCTYPE svg PUBLIC "-//W3C//DTD SVG 1.1//EN" "http://www.w3.org/Graphics/SVG/1.1/DTD/svg11.dtd"><svg t="1595992421981" class="icon" viewBox="0 0 1024 1024" version="1.1" xmlns="http://www.w3.org/2000/svg" p-id="3784" xmlns:xlink="http://www.w3.org/1999/xlink" width="32" height="32"><defs><style type="text/css"></style></defs><path d="M967.203857 623.987309c-25.57325-102.293002-81.834401-127.866252-81.834401-143.210202V404.057356c-10.2293-35.802551-30.6879-25.57325-30.687901-35.802551 0-204.586003-153.439502-368.254805-342.681555-368.254805-184.127403 0-337.566905 163.668802-337.566905 368.254805 0 15.34395-15.34395 5.11465-25.57325 35.802551-5.11465 15.34395 0 20.4586 0 76.719751 0 15.34395-61.375801 76.719751-86.949052 143.210202-25.57325 66.490451-25.57325 138.095552 10.2293 163.668803 35.802551 30.6879 71.605101-92.063701 76.719752-71.605101 0 5.11465 5.11465 15.34395 5.11465 25.57325 15.34395 35.802551 35.802551 71.605101 61.375801 102.293002 5.11465 5.11465-35.802551 20.4586-61.375801 61.3758-25.57325 40.917201 10.2293 117.636952 132.980902 117.636952 163.668802 0 199.471353-56.261151 199.471353-56.261151h51.1465c10.2293 0 86.949051 66.490451 194.356703 56.261151 184.127403-20.4586 158.554152-81.834401 143.210202-122.751602-15.34395-40.917201-66.490451-61.375801-66.490451-61.375801 46.031851-51.146501 51.146501-76.719751 66.490451-122.751601 5.11465-20.4586 51.146501 102.293002 81.834402 71.605101 10.2293-10.2293 40.917201-61.375801 10.2293-163.668803zM870.025505 695.59241c-15.34395 0-61.375801-35.802551-66.490451-20.4586 0 5.11465-5.11465 10.2293-5.11465 20.4586-10.2293 30.6879-46.031851 81.834401-66.490451 107.407652-5.11465 5.11465 30.6879 15.34395 51.146501 51.146501s0 81.834401-86.949051 81.834401c-127.866252 0-158.554152-56.261151-163.668803-56.261151h-40.9172c-5.11465 0-30.6879 56.261151-163.668803 56.261151-81.834401 0-107.407652-46.031851-86.949051-81.834401 20.4586-35.802551 51.146501-46.031851 51.146501-51.146501-20.4586-25.57325-56.261151-76.719751-66.490451-107.407652 0-5.11465-5.11465-10.2293-5.11465-20.4586-5.11465-15.34395-46.031851 25.57325-66.490451 20.4586-30.6879 0-25.57325-40.917201-5.11465-92.063701s66.490451-107.407652 71.605101-117.636952c0-40.917201-5.11465-51.146501 0-61.375801 10.2293-25.57325 20.4586-15.34395 20.4586-25.57325 0-163.668802 92.063701-306.879005 271.076454-306.879005s271.076454 143.210202 271.076454 306.879005c0 15.34395 10.2293 5.11465 20.4586 30.6879 5.11465 10.2293 0 20.4586 0 61.375801 0 10.2293 51.146501 61.375801 71.605101 117.636952 15.34395 46.031851 25.57325 86.949051-5.11465 86.949051z" fill="#999899" p-id="3785"></path></svg>