<?xml version="1.0" standalone="no"?><!DOCTYPE svg PUBLIC "-//W3C//DTD SVG 1.1//EN" "http://www.w3.org/Graphics/SVG/1.1/DTD/svg11.dtd"><svg t="1597901161449" class="icon" viewBox="0 0 1024 1024" version="1.1" xmlns="http://www.w3.org/2000/svg" p-id="4603" xmlns:xlink="http://www.w3.org/1999/xlink" width="32" height="32"><defs><style type="text/css"></style></defs><path d="M373.90901 19.097183c82.337229-23.078743 170.491828-24.974156 253.782725-5.68624 43.356088 10.037346 85.388964 25.772852 124.632363 46.765448 71.68 38.194366 134.014063 93.757392 180.183469 160.57369 47.21844 67.960698 77.437765 147.591898 87.105565 229.774156 10.549942 88.547986-2.121909 179.873527-37.371828 261.853132-27.942445 65.505006-69.879953 124.954226-122.009779 173.448196-54.382864 50.711246-119.947474 89.418207-190.733411 112.246612-89.31092 29.027241-186.656484 32.508126-277.922421 10.5261-80.715995-19.419045-156.413318-59.055832-218.473202-114.165867-61.821467-54.657043-110.208149-124.44163-139.390361-201.652899C12.349988 636.751572 1.370896 576.908964 0.596042 516.98291v-6.449173c0.035763-97.107148 28.431199-193.999721 81.21667-275.526333 40.602375-63.132759 95.271339-117.134156 158.892853-156.961676C281.963586 52.141746 326.976671 32.186263 373.90901 19.097183M499.125495 48.088661c-52.797392 1.382817-105.368289 11.837392-154.613271 30.958417-90.944075 35.011502-169.919627 99.753574-222.597812 181.673574-27.131828 42.140163-47.385332 88.714878-59.628032 137.316135-19.216391 76.436414-18.596508 157.772293 1.788125 233.910687 13.530151 50.186729 35.500256 98.096577 64.873202 140.987753 47.015786 68.747474 112.711525 124.703888 188.420768 159.536577 97.572061 45.549523 211.225332 54.871618 315.115437 26.86957 75.077439-20.098533 144.838184-59.59227 200.746915-113.581747 54.204051-51.986775 95.497835-117.301048 119.005727-188.659185 31.399488-94.639534 31.053783-199.507148-0.941746-293.944028-15.07986-44.51241-36.883073-86.771781-64.646706-124.703888C836.246799 169.359348 766.533737 114.416205 687.260163 82.218021 627.870547 57.780303 563.295367 46.300536 499.125495 48.088661z" p-id="4604" fill="#1296db"></path><path d="M465.484889 149.487311c33.306822 13.482468 64.301001 33.28298 89.120187 59.389616 32.520047 33.831339 53.679534 77.306636 64.956647 122.570058 16.021607 64.479814 14.519581 132.082887 4.458393 197.373318 13.601676 0.119208 26.428498-6.699511 35.369127-16.665332 13.053318-14.328847 20.62305-32.627334 26.631153-50.806612 9.453225-29.766333 14.22156-60.760512 17.92894-91.695088 1.299371-10.061187 2.014622-20.217742 3.98156-30.183562 1.049034 0.417229 2.002701 1.00135 2.83716 1.776205 31.113388 30.481583 59.806845 63.788405 82.504121 101.088708 22.446938 36.859232 38.778487 78.164936 42.616996 121.413737 4.112689 43.344168-5.340536 87.427427-24.866868 126.193993-19.097183 38.349336-46.705844 71.906496-77.878836 101.064866-30.696158 28.478882-64.813597 53.309988-101.434412 73.635017-5.912736 3.230547-11.896997 6.353807-18.119674 8.95255-36.215506-16.283865-67.674598-42.438184-91.110966-74.421793-27.179511-36.585052-44.79851-79.392782-56.707427-123.142259-4.029243-14.150035-7.128661-28.538487-10.466496-42.855413l-1.049034-0.047683c-15.449406 14.722235-25.987427 34.165122-31.2922 54.75241-5.817369 22.530384-6.079627 46.133644-3.528568 69.152782 3.075576 27.644424 10.204237 54.633201 18.334249 81.168987 2.41993 8.24922 5.090198 16.438836 7.021373 24.819185-76.150314-28.168941-138.973132-89.406286-170.515669-164.078417-22.566147-52.666263-29.527916-112.592317-16.06929-168.548731 10.967171-46.431665 36.513527-89.155949 71.811129-121.199161 28.776903-23.054901 55.276927-49.137695 77.378161-78.713295 27.572899-36.811548 48.195949-79.452386 56.063702-124.978068 3.039814-18.465378 4.422631-37.383749 2.026542-56.016018m41.794459 80.000745c-6.25844 26.988778-16.176577 53.083492-29.027241 77.616577-28.002049 53.453038-68.950128 99.336345-115.739418 137.089639-35.810198 31.876321-58.531315 77.771548-62.548638 125.514506-6.40149 70.130291 22.554226 141.059278 71.942259 190.483073-2.229197-22.113155-2.324563-44.536251 1.168242-66.518277 3.850431-24.306589 12.338068-48.052899 26.070873-68.55674 8.225378-12.576484 18.608428-23.531735 29.623283-33.688289 18.107753-17.249453 36.179744-34.546589 54.299418-51.784121 3.683539 16.450757 7.426682 32.877672 11.134063 49.328428 10.597625 46.169406 19.323679 93.387846 39.744074 136.517439 17.511711 37.860582 43.916368 72.848242 80.143795 94.460722 35.619464-20.7661 68.962049-45.680652 98.013132-74.993993 27.620582-28.061653 51.652992-60.545937 65.457322-97.691269 10.085029-26.833807 13.744726-56.063702 10.204238-84.530664-5.161723-42.116321-24.17546-81.323958-48.434366-115.667893-6.008102 25.200652-14.030827 50.174808-26.893411 72.788638-9.310175 16.236182-21.433667 31.232596-37.145332 41.651409-14.674552 9.858533-32.341234 14.805681-49.960232 14.924889-18.846845 0.119208-37.681769 0.047683-56.516694 0.035763 5.817369-41.842142 13.79241-83.541234 14.829522-125.895972 1.41858-49.864866-3.993481-100.921816-23.591338-147.19851-11.873155-28.097416-29.659045-53.870268-52.773551-73.885355z" p-id="4605" fill="#1296db"></path></svg>