<?xml version="1.0" standalone="no"?><!DOCTYPE svg PUBLIC "-//W3C//DTD SVG 1.1//EN" "http://www.w3.org/Graphics/SVG/1.1/DTD/svg11.dtd"><svg t="1598099887700" class="icon" viewBox="0 0 1024 1024" version="1.1" xmlns="http://www.w3.org/2000/svg" p-id="5166" xmlns:xlink="http://www.w3.org/1999/xlink" width="32" height="32"><defs><style type="text/css"></style></defs><path d="M172.7 294v-34.7l299.8-78.5 334.8 71.5c9.2 2 16.5 9 18.8 18.1 6.1 23.6 11.3 68.9-28.3 90.9l33.4 7c7.2 1.5 13.2 6.5 15.9 13.4 5.8 14.4 12.7 41.4 2.9 74.3-3.8 12.6-12.3 23.3-23.5 30.1l-61.3 37.4L925 567v30.6l-467.8 93.7c-6 1.2-10.9 5.6-12.7 11.5-5.5 18.2-14.3 59.5 1.9 99.2 2.3 5.6 8.3 8.8 14.2 7.5l459.1-103.4 5.4 25.2-474.6 111.3c-5.7 1.3-11.7 0.4-16.6-2.7L125.4 648.8c-5-3.1-8.9-7.5-11.3-12.8-10-22.2-32.2-82.8 8.1-110.1 5.4-3.6 12-4.9 18.3-3.4 52.1 12.2 326.3 76.5 393.9 92.3 9.4 2.2 19-3.1 21.9-12.3 4.5-14.1 8.4-37.4 2.1-68.7-1.1-5.7-5.7-10.2-11.4-11.4l-401.4-83 0.6-22c0.1-2.9 1.9-5.4 4.6-6.4l14.1-5.1c4-1.5 6.9-5.1 7.4-9.4l2.3-19.8 364 88.9c7.5 1.8 15.1-2.5 17.4-10 4.2-13.7 8.2-37.4 0.4-66.5-1.7-6.2-6.6-10.9-12.8-12.3L172.7 294z" fill="#1296db" p-id="5167"></path><path d="M468.61 712.961l438.681-90.899 1.867 9.009-438.682 90.899zM471.912 740.162l438.682-90.9 1.867 9.01-438.682 90.898zM477.907 769.27l438.682-90.9 1.867 9.01-438.682 90.899z" fill="#1296db" p-id="5168"></path></svg>