<?xml version="1.0" standalone="no"?><!DOCTYPE svg PUBLIC "-//W3C//DTD SVG 1.1//EN" "http://www.w3.org/Graphics/SVG/1.1/DTD/svg11.dtd"><svg t="1595730158367" class="icon" viewBox="0 0 1024 1024" version="1.1" xmlns="http://www.w3.org/2000/svg" p-id="2177" xmlns:xlink="http://www.w3.org/1999/xlink" width="200" height="200"><defs><style type="text/css"></style></defs><path d="M514.351 138.239c-207.95 0-376.527 168.577-376.527 376.526s168.578 376.527 376.527 376.527c207.95 0 376.527-168.578 376.527-376.527S722.301 138.239 514.351 138.239zM514.35 830.69c-174.48 0-315.923-141.444-315.923-315.924 0-174.481 141.444-315.925 315.923-315.925 174.482 0 315.925 141.444 315.925 315.925C830.275 689.246 688.831 830.69 514.35 830.69zM483.022 578.594c-19.632 0-35.604-15.97-35.604-35.599L447.418 292.571c0-19.632 15.972-35.604 35.604-35.604 19.628 0 35.597 15.972 35.597 35.604l0 214.822 152.217 0c19.632 0 35.603 15.971 35.603 35.603 0 19.629-15.971 35.599-35.603 35.599L483.022 578.595z" p-id="2178"></path></svg>