<?xml version="1.0" standalone="no"?><!DOCTYPE svg PUBLIC "-//W3C//DTD SVG 1.1//EN" "http://www.w3.org/Graphics/SVG/1.1/DTD/svg11.dtd"><svg t="1595730130168" class="icon" viewBox="0 0 1024 1024" version="1.1" xmlns="http://www.w3.org/2000/svg" p-id="1393" xmlns:xlink="http://www.w3.org/1999/xlink" width="200" height="200"><defs><style type="text/css"></style></defs><path d="M512 496c-124.8 0-224-99.2-224-224s99.2-224 224-224 224 99.2 224 224-99.2 224-224 224z m0-384c-89.6 0-160 70.4-160 160s70.4 160 160 160 160-70.4 160-160-70.4-160-160-160zM880 976h-736C99.2 976 64 940.8 64 896c0-156.8 150.4-384 384-384h128c233.6 0 384 227.2 384 384 0 44.8-35.2 80-80 80zM448 576C256 576 128 768 128 896c0 9.6 6.4 16 16 16h736c9.6 0 16-6.4 16-16 0-128-128-320-320-320h-128z" p-id="1394"></path></svg>