<?xml version="1.0" standalone="no"?><!DOCTYPE svg PUBLIC "-//W3C//DTD SVG 1.1//EN" "http://www.w3.org/Graphics/SVG/1.1/DTD/svg11.dtd"><svg t="1595730190152" class="icon" viewBox="0 0 1024 1024" version="1.1" xmlns="http://www.w3.org/2000/svg" p-id="3695" xmlns:xlink="http://www.w3.org/1999/xlink" width="200" height="200"><defs><style type="text/css"></style></defs><path d="M987.428571 110.857143H725.942857c-56.114286 0-110.971429 16.114286-158.171428 46.514286L512 193.142857l-55.771429-35.771428A291.657143 291.657143 0 0 0 298.057143 110.857143H36.571429c-20.228571 0-36.571429 16.342857-36.571429 36.571428v649.142858c0 20.228571 16.342857 36.571429 36.571429 36.571428h261.485714c56.114286 0 110.971429 16.114286 158.171428 46.514286l50.742858 32.685714c1.485714 0.914286 3.2 1.485714 4.914285 1.485714s3.428571-0.457143 4.914286-1.485714l50.742857-32.685714C614.857143 849.257143 669.828571 833.142857 725.942857 833.142857H987.428571c20.228571 0 36.571429-16.342857 36.571429-36.571428V147.428571c0-20.228571-16.342857-36.571429-36.571429-36.571428zM298.057143 750.857143H82.285714V193.142857h215.771429c40.457143 0 79.771429 11.542857 113.714286 33.371429l55.771428 35.771428 7.885714 5.142857v528c-54.4-29.257143-115.2-44.571429-177.371428-44.571428z m643.657143 0H725.942857c-62.171429 0-122.971429 15.314286-177.371428 44.571428V267.428571l7.885714-5.142857 55.771428-35.771428c33.942857-21.828571 73.257143-33.371429 113.714286-33.371429H941.714286v557.714286zM380.457143 339.428571H168.114286c-4.457143 0-8.114286 3.885714-8.114286 8.571429v51.428571c0 4.685714 3.657143 8.571429 8.114286 8.571429h212.228571c4.457143 0 8.114286-3.885714 8.114286-8.571429v-51.428571c0.114286-4.685714-3.542857-8.571429-8-8.571429z m254.971428 8.571429v51.428571c0 4.685714 3.657143 8.571429 8.114286 8.571429h212.228572c4.457143 0 8.114286-3.885714 8.114285-8.571429v-51.428571c0-4.685714-3.657143-8.571429-8.114285-8.571429H643.542857c-4.457143 0-8.114286 3.885714-8.114286 8.571429zM380.457143 499.428571H168.114286c-4.457143 0-8.114286 3.885714-8.114286 8.571429v51.428571c0 4.685714 3.657143 8.571429 8.114286 8.571429h212.228571c4.457143 0 8.114286-3.885714 8.114286-8.571429v-51.428571c0.114286-4.685714-3.542857-8.571429-8-8.571429z m475.428571 0H643.542857c-4.457143 0-8.114286 3.885714-8.114286 8.571429v51.428571c0 4.685714 3.657143 8.571429 8.114286 8.571429h212.228572c4.457143 0 8.114286-3.885714 8.114285-8.571429v-51.428571c0.114286-4.685714-3.542857-8.571429-8-8.571429z" p-id="3696" fill="#cdcdcd"></path></svg>