<?xml version="1.0" standalone="no"?><!DOCTYPE svg PUBLIC "-//W3C//DTD SVG 1.1//EN" "http://www.w3.org/Graphics/SVG/1.1/DTD/svg11.dtd"><svg t="1595992382068" class="icon" viewBox="0 0 1024 1024" version="1.1" xmlns="http://www.w3.org/2000/svg" p-id="2900" xmlns:xlink="http://www.w3.org/1999/xlink" width="32" height="32"><defs><style type="text/css"></style></defs><path d="M137.4 505.3c17.5-0.6 31.2-15.3 30.6-32.8-5.1-149.6 98-279.3 245.2-308.2 164.5-32.5 324.7 75 357.1 239.5 4.8 24.6 6.2 49.1 5.1 73.1 3.6 0.8 7.2 1.5 10.8 2.5 18.3 5.2 35.4 12.7 51.2 21.7 3.8-35.7 2.4-72.5-4.9-109.6C793.4 192.7 599.8 62.8 401 102 223.1 137 98.5 293.8 104.7 474.7c0.6 17.4 15 32 32.7 30.6zM506.2 764.3c-82.4 9.4-164.8-14.8-229.3-68.7l-9.3-7.7-97.3 2.9 13.5-25.1c8.3-15.4 2.5-34.7-12.9-43-15.5-8.3-34.7-2.5-43 12.9L62.3 757.5l183.4-5.6c65.3 51.1 144.6 78.2 225.9 78.2 20.9 0 41.9-2.1 62.9-5.7-12.3-18.5-21.8-38.8-28.3-60.1z" fill="#1296db" p-id="2901"></path><path d="M705.3 925.4c50.2 4.2 100.6-8.5 143.5-36.7l113 12.8-34.2-78.7c-4.3-10-15.9-14.5-25.9-10.2-10 4.3-14.5 15.9-10.2 25.9l7 16.2-59.9-6.8-6.1 4.3c-46.8 33-105.2 43-160.1 27.3-99.9-28.4-158.1-132.9-129.7-232.8 28.4-99.9 132.9-158.2 232.8-129.6 89.4 25.4 146.4 110.8 135.6 202.9-1.3 10.8 6.5 20.6 17.2 21.8 10.9 1.8 20.6-6.5 21.8-17.2 13.1-111.4-55.9-214.6-163.9-245.3-120.8-34.4-247 35.9-281.4 156.7-34.4 120.8 35.9 247 156.7 281.4 14.5 4.2 29.2 6.8 43.8 8z" fill="#1296db" p-id="2902"></path><path d="M351.9 388.3m-40.8 0a40.8 40.8 0 1 0 81.6 0 40.8 40.8 0 1 0-81.6 0Z" fill="#1296db" p-id="2903"></path><path d="M604.6 388.3m-40.8 0a40.8 40.8 0 1 0 81.6 0 40.8 40.8 0 1 0-81.6 0Z" fill="#1296db" p-id="2904"></path><path d="M653.9 657.6m-23.2 0a23.2 23.2 0 1 0 46.4 0 23.2 23.2 0 1 0-46.4 0Z" fill="#1296db" p-id="2905"></path><path d="M792.9 657.6m-23.2 0a23.2 23.2 0 1 0 46.4 0 23.2 23.2 0 1 0-46.4 0Z" fill="#1296db" p-id="2906"></path></svg>