<?xml version="1.0" standalone="no"?><!DOCTYPE svg PUBLIC "-//W3C//DTD SVG 1.1//EN" "http://www.w3.org/Graphics/SVG/1.1/DTD/svg11.dtd"><svg t="1597889600454" class="icon" viewBox="0 0 1024 1024" version="1.1" xmlns="http://www.w3.org/2000/svg" p-id="1475" width="32" height="32" xmlns:xlink="http://www.w3.org/1999/xlink"><defs><style type="text/css"></style></defs><path d="M812.868882 146.827482L642.615107 13.131266a58.700995 58.700995 0 0 0-83.560135 9.818316l-394.821638 501.36081A61.207799 61.207799 0 0 0 154.832819 547.916131L96.967425 795.880831a58.283194 58.283194 0 0 0 20.890034 59.327696 57.447593 57.447593 0 0 0 62.670101 6.26701l227.701368-113.850684a59.745497 59.745497 0 0 0 19.845532-16.294226L823.313899 230.387617a58.700995 58.700995 0 0 0-10.445017-83.560135z m-459.580743 511.596927l-131.607212 65.803607 32.170652-142.887831 229.790371-293.713875 98.600959 77.502025z m295.593978-376.020608l-99.436561-76.875324L614.413561 123.430645l98.392059 77.502025z" fill="#bfbfbf" p-id="1476"></path><path d="M92.162717 919.549831m52.225085 0l626.701013 0q52.225084 0 52.225084 52.225085l0 0q0 52.225084-52.225084 52.225084l-626.701013 0q-52.225084 0-52.225085-52.225084l0 0q0-52.225084 52.225085-52.225085Z" fill="#bfbfbf" p-id="1477"></path></svg>